<?xml version="1.0" encoding="UTF-8" standalone="no"?>
<!-- Created with Inkscape (http://www.inkscape.org/) -->

<svg
   xmlns:dc="http://purl.org/dc/elements/1.1/"
   xmlns:cc="http://creativecommons.org/ns#"
   xmlns:rdf="http://www.w3.org/1999/02/22-rdf-syntax-ns#"
   xmlns:svg="http://www.w3.org/2000/svg"
   xmlns="http://www.w3.org/2000/svg"
   xmlns:sodipodi="http://sodipodi.sourceforge.net/DTD/sodipodi-0.dtd"
   xmlns:inkscape="http://www.inkscape.org/namespaces/inkscape"
   width="744.09448819"
   height="1052.3622047"
   id="svg2"
   version="1.1"
   inkscape:version="0.48.3.1 r9886"
   sodipodi:docname="collected_edges.svg"
   inkscape:export-filename="/home/jan-christoph/git/mangan-harvest/doc/paper/img/collected_edges.png"
   inkscape:export-xdpi="269.01398"
   inkscape:export-ydpi="269.01398">
  <defs
     id="defs4">
    <marker
       inkscape:stockid="TriangleOutM"
       orient="auto"
       refY="0.0"
       refX="0.0"
       id="TriangleOutM"
       style="overflow:visible">
      <path
         id="path4124"
         d="M 5.77,0.0 L -2.88,5.0 L -2.88,-5.0 L 5.77,0.0 z "
         style="fill-rule:evenodd;stroke:#000000;stroke-width:1.0pt"
         transform="scale(0.4)" />
    </marker>
    <marker
       inkscape:stockid="TriangleOutS"
       orient="auto"
       refY="0.0"
       refX="0.0"
       id="TriangleOutS"
       style="overflow:visible">
      <path
         id="path4127"
         d="M 5.77,0.0 L -2.88,5.0 L -2.88,-5.0 L 5.77,0.0 z "
         style="fill-rule:evenodd;stroke:#000000;stroke-width:1.0pt"
         transform="scale(0.2)" />
    </marker>
    <marker
       inkscape:stockid="TriangleOutL"
       orient="auto"
       refY="0.0"
       refX="0.0"
       id="TriangleOutL"
       style="overflow:visible">
      <path
         id="path4121"
         d="M 5.77,0.0 L -2.88,5.0 L -2.88,-5.0 L 5.77,0.0 z "
         style="fill-rule:evenodd;stroke:#000000;stroke-width:1.0pt"
         transform="scale(0.8)" />
    </marker>
    <marker
       inkscape:stockid="Arrow1Send"
       orient="auto"
       refY="0.0"
       refX="0.0"
       id="Arrow1Send"
       style="overflow:visible;">
      <path
         id="path3994"
         d="M 0.0,0.0 L 5.0,-5.0 L -12.5,0.0 L 5.0,5.0 L 0.0,0.0 z "
         style="fill-rule:evenodd;stroke:#000000;stroke-width:1.0pt;"
         transform="scale(0.2) rotate(180) translate(6,0)" />
    </marker>
    <marker
       inkscape:stockid="Arrow1Lend"
       orient="auto"
       refY="0.0"
       refX="0.0"
       id="Arrow1Lend"
       style="overflow:visible;">
      <path
         id="path3982"
         d="M 0.0,0.0 L 5.0,-5.0 L -12.5,0.0 L 5.0,5.0 L 0.0,0.0 z "
         style="fill-rule:evenodd;stroke:#000000;stroke-width:1.0pt;"
         transform="scale(0.8) rotate(180) translate(12.5,0)" />
    </marker>
  </defs>
  <sodipodi:namedview
     id="base"
     pagecolor="#ffffff"
     bordercolor="#666666"
     borderopacity="1.0"
     inkscape:pageopacity="0.0"
     inkscape:pageshadow="2"
     inkscape:zoom="1.4142136"
     inkscape:cx="84.37941"
     inkscape:cy="846.64037"
     inkscape:document-units="px"
     inkscape:current-layer="layer1"
     showgrid="false"
     inkscape:window-width="1600"
     inkscape:window-height="851"
     inkscape:window-x="0"
     inkscape:window-y="25"
     inkscape:window-maximized="1"
     showguides="true"
     inkscape:guide-bbox="true"
     inkscape:snap-global="false">
    <sodipodi:guide
       orientation="0,1"
       position="164,851"
       id="guide5175" />
  </sodipodi:namedview>
  <metadata
     id="metadata7">
    <rdf:RDF>
      <cc:Work
         rdf:about="">
        <dc:format>image/svg+xml</dc:format>
        <dc:type
           rdf:resource="http://purl.org/dc/dcmitype/StillImage" />
        <dc:title></dc:title>
      </cc:Work>
    </rdf:RDF>
  </metadata>
  <g
     inkscape:label="Layer 1"
     inkscape:groupmode="layer"
     id="layer1">
    <path
       sodipodi:type="arc"
       style="fill:#ff0000;fill-opacity:1;stroke:#000000;stroke-width:1;stroke-linecap:round;stroke-linejoin:round;stroke-miterlimit:4;stroke-opacity:1;stroke-dasharray:none"
       id="path3077"
       sodipodi:cx="-124.75384"
       sodipodi:cy="159.38733"
       sodipodi:rx="13.637059"
       sodipodi:ry="13.637059"
       d="m -111.11678,159.38733 a 13.637059,13.637059 0 1 1 -27.27412,0 13.637059,13.637059 0 1 1 27.27412,0 z"
       transform="matrix(-1,0,0,1,53.782797,41.400997)" />
    <path
       sodipodi:type="star"
       style="fill:#ffffff;fill-opacity:1;stroke:#000000;stroke-width:1;stroke-linecap:round;stroke-linejoin:round;stroke-miterlimit:4;stroke-opacity:1;stroke-dasharray:none"
       id="path2985"
       sodipodi:sides="4"
       sodipodi:cx="52.527931"
       sodipodi:cy="82.615738"
       sodipodi:r1="67.860901"
       sodipodi:r2="47.984905"
       sodipodi:arg1="0.78539816"
       sodipodi:arg2="1.5707963"
       inkscape:flatsided="true"
       inkscape:rounded="0"
       inkscape:randomized="0"
       d="m 100.51283,130.60064 -95.9698018,0 -3e-7,-95.969805 95.9698021,0 z"
       transform="matrix(-1,0,0,1,328.5084,22.728432)" />
    <path
       sodipodi:type="star"
       style="fill:#ffffff;fill-opacity:1;stroke:#000000;stroke-width:1;stroke-linecap:round;stroke-linejoin:round;stroke-miterlimit:4;stroke-opacity:1;stroke-dasharray:none"
       id="path2985-3"
       sodipodi:sides="4"
       sodipodi:cx="52.527931"
       sodipodi:cy="82.615738"
       sodipodi:r1="67.860901"
       sodipodi:r2="47.984905"
       sodipodi:arg1="0.78539816"
       sodipodi:arg2="1.5707963"
       inkscape:flatsided="true"
       inkscape:rounded="0"
       inkscape:randomized="0"
       d="m 100.51283,130.60064 -95.9698018,0 -3e-7,-95.969805 95.9698021,0 z"
       transform="matrix(-1,0,0,1,232.87567,22.815091)" />
    <path
       transform="matrix(-1,0,0,1,136.87567,22.815091)"
       d="m 100.51283,130.60064 -95.9698018,0 -3e-7,-95.969805 95.9698021,0 z"
       inkscape:randomized="0"
       inkscape:rounded="0"
       inkscape:flatsided="true"
       sodipodi:arg2="1.5707963"
       sodipodi:arg1="0.78539816"
       sodipodi:r2="47.984905"
       sodipodi:r1="67.860901"
       sodipodi:cy="82.615738"
       sodipodi:cx="52.527931"
       sodipodi:sides="4"
       id="path3044"
       style="fill:#ffffff;fill-opacity:1;stroke:#000000;stroke-width:1;stroke-linecap:round;stroke-linejoin:round;stroke-miterlimit:4;stroke-opacity:1;stroke-dasharray:none"
       sodipodi:type="star" />
    <path
       transform="matrix(-1,0,0,1,328.5084,118.72843)"
       d="m 100.51283,130.60064 -95.9698018,0 -3e-7,-95.969805 95.9698021,0 z"
       inkscape:randomized="0"
       inkscape:rounded="0"
       inkscape:flatsided="true"
       sodipodi:arg2="1.5707963"
       sodipodi:arg1="0.78539816"
       sodipodi:r2="47.984905"
       sodipodi:r1="67.860901"
       sodipodi:cy="82.615738"
       sodipodi:cx="52.527931"
       sodipodi:sides="4"
       id="path3046"
       style="fill:#ffffff;fill-opacity:1;stroke:#000000;stroke-width:1;stroke-linecap:round;stroke-linejoin:round;stroke-miterlimit:4;stroke-opacity:1;stroke-dasharray:none"
       sodipodi:type="star" />
    <path
       sodipodi:type="star"
       style="fill:#ffffff;fill-opacity:1;stroke:#000000;stroke-width:1;stroke-linecap:round;stroke-linejoin:round;stroke-miterlimit:4;stroke-opacity:1;stroke-dasharray:none"
       id="path3050"
       sodipodi:sides="4"
       sodipodi:cx="52.527931"
       sodipodi:cy="82.615738"
       sodipodi:r1="67.860901"
       sodipodi:r2="47.984905"
       sodipodi:arg1="0.78539816"
       sodipodi:arg2="1.5707963"
       inkscape:flatsided="true"
       inkscape:rounded="0"
       inkscape:randomized="0"
       d="m 100.51283,130.60064 -95.9698018,0 -3e-7,-95.969805 95.9698021,0 z"
       transform="matrix(-1,0,0,1,136.87567,118.81509)" />
    <path
       sodipodi:type="star"
       style="fill:#ffffff;fill-opacity:1;stroke:#000000;stroke-width:1;stroke-linecap:round;stroke-linejoin:round;stroke-miterlimit:4;stroke-opacity:1;stroke-dasharray:none"
       id="path3052"
       sodipodi:sides="4"
       sodipodi:cx="52.527931"
       sodipodi:cy="82.615738"
       sodipodi:r1="67.860901"
       sodipodi:r2="47.984905"
       sodipodi:arg1="0.78539816"
       sodipodi:arg2="1.5707963"
       inkscape:flatsided="true"
       inkscape:rounded="0"
       inkscape:randomized="0"
       d="m 100.51283,130.60064 -95.9698018,0 -3e-7,-95.969805 95.9698021,0 z"
       transform="matrix(-1,0,0,1,328.5084,214.72843)" />
    <path
       sodipodi:type="star"
       style="fill:#ffffff;fill-opacity:1;stroke:#000000;stroke-width:1;stroke-linecap:round;stroke-linejoin:round;stroke-miterlimit:4;stroke-opacity:1;stroke-dasharray:none"
       id="path3054"
       sodipodi:sides="4"
       sodipodi:cx="52.527931"
       sodipodi:cy="82.615738"
       sodipodi:r1="67.860901"
       sodipodi:r2="47.984905"
       sodipodi:arg1="0.78539816"
       sodipodi:arg2="1.5707963"
       inkscape:flatsided="true"
       inkscape:rounded="0"
       inkscape:randomized="0"
       d="m 100.51283,130.60064 -95.9698018,0 -3e-7,-95.969805 95.9698021,0 z"
       transform="matrix(-1,0,0,1,232.87567,214.81509)" />
    <path
       transform="matrix(-1,0,0,1,136.87567,214.81509)"
       d="m 100.51283,130.60064 -95.9698018,0 -3e-7,-95.969805 95.9698021,0 z"
       inkscape:randomized="0"
       inkscape:rounded="0"
       inkscape:flatsided="true"
       sodipodi:arg2="1.5707963"
       sodipodi:arg1="0.78539816"
       sodipodi:r2="47.984905"
       sodipodi:r1="67.860901"
       sodipodi:cy="82.615738"
       sodipodi:cx="52.527931"
       sodipodi:sides="4"
       id="path3056"
       style="fill:#ffffff;fill-opacity:1;stroke:#000000;stroke-width:1;stroke-linecap:round;stroke-linejoin:round;stroke-miterlimit:4;stroke-opacity:1;stroke-dasharray:none"
       sodipodi:type="star" />
    <path
       sodipodi:type="arc"
       style="fill:none;stroke:#000000;stroke-width:0.94835448;stroke-linecap:round;stroke-linejoin:round;stroke-miterlimit:4;stroke-opacity:1;stroke-dasharray:none"
       id="path3137"
       sodipodi:cx="386.07144"
       sodipodi:cy="178.79076"
       sodipodi:rx="45.357143"
       sodipodi:ry="45.357143"
       d="m 431.42859,178.79076 a 45.357143,45.357143 0 1 1 -90.71429,0 45.357143,45.357143 0 1 1 90.71429,0 z"
       transform="matrix(-1.0476722,0,0,1.0456447,584.71523,14.374859)" />
    <path
       style="fill:#009999;fill-opacity:1;stroke:#009999;stroke-width:0.35836881;stroke-linecap:round;stroke-linejoin:round;stroke-miterlimit:4;stroke-opacity:1;stroke-dasharray:none"
       d="m 133.64428,188.72794 c 0.59086,-2.63567 3.26121,-9.05284 4.9011,-11.77798 6.61758,-10.99684 16.81257,-18.74245 29.1958,-22.18137 2.32714,-0.64627 2.31084,-0.64696 -16.21675,-0.67928 l -18.54623,-0.0323 0,18.27617 c 0,10.0519 0.055,18.27618 0.12216,18.27618 0.0672,0 0.31196,-0.84662 0.54392,-1.88138 l 0,0 z"
       id="path3921"
       inkscape:connector-curvature="0" />
    <path
       transform="matrix(-1.0476722,0,0,1.0456447,489.02773,14.374859)"
       d="m 431.42859,178.79076 a 45.357143,45.357143 0 1 1 -90.71429,0 45.357143,45.357143 0 1 1 90.71429,0 z"
       sodipodi:ry="45.357143"
       sodipodi:rx="45.357143"
       sodipodi:cy="178.79076"
       sodipodi:cx="386.07144"
       id="path3945"
       style="fill:none;stroke:#000000;stroke-width:0.94835448;stroke-linecap:round;stroke-linejoin:round;stroke-miterlimit:4;stroke-opacity:1;stroke-dasharray:none"
       sodipodi:type="arc" />
    <path
       style="fill:#009999;fill-opacity:1;stroke:#009999;stroke-width:0.35714287;stroke-linecap:round;stroke-linejoin:round;stroke-miterlimit:4;stroke-opacity:1;stroke-dasharray:none"
       d="m 167.75626,247.78587 c -9.04608,-2.58823 -16.19328,-6.86182 -22.50909,-13.45906 -5.33275,-5.57038 -9.06314,-12.14063 -11.42453,-20.12177 l -0.84979,-2.87219 -0.019,18.66072 -0.019,18.66071 18.83929,-0.0255 18.83928,-0.0255 -2.85714,-0.81747 0,-1e-5 z"
       id="path3951"
       inkscape:connector-curvature="0" />
    <path
       style="fill:#009999;fill-opacity:1;stroke:#009999;stroke-width:0.02232143;stroke-linecap:round;stroke-linejoin:round;stroke-miterlimit:4;stroke-opacity:1;stroke-dasharray:none"
       d="m 131.81882,185.61486 0.002,-9.12389 -0.0781,0 c -0.043,0 -0.0786,0.003 -0.0791,0.006 -5.5e-4,0.003 -0.0103,2.04967 -0.0217,4.548 -0.0304,6.66858 -0.0729,8.45425 -0.21243,8.92412 -0.0747,0.25167 -0.3233,0.30778 -0.45804,0.10339 -0.0545,-0.0827 -0.0545,-0.0491 2.5e-4,0.1652 0.22724,0.89002 0.58673,2.75431 0.77119,3.99925 l 0.0744,0.50223 0.002,-9.12388 z"
       id="path3953"
       inkscape:connector-curvature="0" />
    <path
       style="fill:#009999;fill-opacity:1;stroke:#009999;stroke-width:0.02232143;stroke-linecap:round;stroke-linejoin:round;stroke-miterlimit:4;stroke-opacity:1;stroke-dasharray:none"
       d="m 132.90052,193.20414 c 0.0536,-0.34106 0.28695,-1.54409 0.39476,-2.03502 0.0483,-0.21999 0.0878,-0.40948 0.0878,-0.4211 0,-0.0116 -0.0248,-0.005 -0.055,0.0149 -0.10295,0.0675 -0.21057,0.0367 -0.26932,-0.0769 -0.0282,-0.0546 -0.0384,-0.22039 -0.0553,-0.89777 -0.0277,-1.11261 -0.0627,-5.36381 -0.0803,-9.73151 -0.0121,-3.0062 -0.0191,-3.56585 -0.0451,-3.56585 -0.026,0 -0.0307,1.29422 -0.0307,8.48215 0,4.66518 0.003,8.48214 0.007,8.48214 0.004,0 0.0246,-0.113 0.0463,-0.25112 l 0,0 z"
       id="path3955"
       inkscape:connector-curvature="0" />
    <path
       style="fill:#009999;fill-opacity:1;stroke:#009999;stroke-width:0.02232143;stroke-linecap:round;stroke-linejoin:round;stroke-miterlimit:4;stroke-opacity:1;stroke-dasharray:none"
       d="m 132.93188,192.99086 c 0.0274,-0.14357 0.055,-0.30122 0.0615,-0.35033 0.006,-0.0491 0.0173,-0.10435 0.0241,-0.12277 0.007,-0.0184 0.0167,-0.0686 0.0219,-0.11161 0.005,-0.043 0.0797,-0.42139 0.16547,-0.84094 0.0857,-0.41955 0.15587,-0.77398 0.15587,-0.78762 0,-0.0176 -0.0125,-0.0181 -0.0432,-0.002 -0.0726,0.0389 -0.16879,0.0269 -0.21823,-0.0271 -0.0523,-0.0571 -0.0935,-0.16571 -0.0535,-0.14099 0.0136,0.008 0.0247,0.029 0.0247,0.0458 0,0.0414 0.1072,0.12307 0.16149,0.12307 0.0241,0 0.0764,-0.0326 0.11618,-0.0726 0.11419,-0.11456 0.26879,-0.61673 0.53772,-1.74665 0.16523,-0.6942 0.30341,-1.1804 0.53906,-1.89672 0.45843,-1.39352 1.04477,-2.92004 1.80929,-4.71042 1.06392,-2.49153 1.93343,-4.25724 2.73311,-5.5501 0.096,-0.15523 0.17457,-0.28833 0.17457,-0.29576 0,-0.007 -1.39739,-0.0135 -3.10532,-0.0135 l -3.10533,0 0.0164,3.76675 c 0.009,2.0717 0.0107,3.76141 0.004,3.7549 -0.007,-0.006 -0.018,-0.97581 -0.0247,-2.15401 -0.007,-1.17821 -0.0177,-2.74989 -0.0244,-3.49264 -0.007,-0.74274 -0.0118,-1.46512 -0.0113,-1.60528 4.8e-4,-0.14016 -0.005,-0.24909 -0.0119,-0.24206 -0.013,0.013 -0.0173,16.71306 -0.004,16.7261 0.004,0.004 0.0296,-0.11029 0.0569,-0.25387 l 0,0 z m 0.0766,-2.72756 0.001,-0.12277 0.017,0.12277 c 0.009,0.0675 0.0167,0.16796 0.0164,0.22321 l -5.8e-4,0.10045 -0.0179,-0.10045 c -0.01,-0.0553 -0.0172,-0.15569 -0.0164,-0.22321 l 0,0 z m -0.0208,-0.95983 10e-4,-0.3683 0.016,0.29018 c 0.009,0.1596 0.0155,0.42076 0.0149,0.58036 l -0.001,0.29018 -0.0162,-0.21206 c -0.009,-0.11663 -0.0156,-0.37779 -0.0149,-0.58036 l 0,0 z m -0.0123,-1.38392 c -0.006,-0.47514 -0.004,-0.75459 0.006,-0.625 0.0175,0.23968 0.0294,1.51049 0.014,1.49367 -0.005,-0.005 -0.0136,-0.39602 -0.0198,-0.86867 z m -0.0316,-2.89063 0.001,-0.73661 0.0153,0.5134 c 0.008,0.28236 0.0147,0.88002 0.0141,1.32812 l -10e-4,0.81473 -0.0153,-0.59151 c -0.008,-0.32534 -0.0147,-0.923 -0.0141,-1.32813 l 0,0 z"
       id="path3957"
       inkscape:connector-curvature="0" />
    <path
       style="fill:#009999;fill-opacity:1;stroke:#009999;stroke-width:0.03156727;stroke-linecap:round;stroke-linejoin:round;stroke-miterlimit:4;stroke-opacity:1;stroke-dasharray:none"
       d="m 169.51882,154.59129 c 0.79881,-0.18479 1.8919,-0.40195 2.76214,-0.54873 l 0.71026,-0.11979 -19.50068,-0.003 c -10.72537,-0.002 -19.50068,0.009 -19.50068,0.0233 0,0.0387 5.07502,0.0681 12.04291,0.0697 8.17417,0.002 19.21119,0.0515 20.58186,0.0926 1.18147,0.0354 1.79238,0.0749 2.06152,0.13318 0.28231,0.0611 0.38946,0.26452 0.23376,0.4437 -0.0589,0.0678 -0.10907,0.0753 0.60891,-0.0908 z"
       id="path3959"
       inkscape:connector-curvature="0" />
    <path
       style="fill:#009999;fill-opacity:1;stroke:#009999;stroke-width:0.01116071;stroke-linecap:round;stroke-linejoin:round;stroke-miterlimit:4;stroke-opacity:1;stroke-dasharray:none"
       d="m 94.634077,154.48214 c -0.48943,-0.13085 -0.87139,-0.23861 -0.89733,-0.25314 -0.0248,-0.0139 -0.0545,-0.0428 -0.0658,-0.0642 -0.025,-0.047 -0.0269,-0.14163 -0.004,-0.17251 0.009,-0.0119 0.0164,-0.0257 0.0164,-0.0307 0,-0.005 -0.46833,-0.008 -1.04073,-0.008 -0.68563,8.8e-4 -1.0198,0.005 -0.97936,0.0118 0.0338,0.006 0.27484,0.0457 0.53572,0.0888 0.71052,0.11743 1.45246,0.25816 2.17355,0.41229 0.30137,0.0644 0.85895,0.1904 0.98679,0.22296 0.0471,0.012 0.0948,0.0214 0.10603,0.021 0.0113,-4.2e-4 -0.36301,-0.10329 -0.8317,-0.22859 l 0,0 z"
       id="path3961"
       inkscape:connector-curvature="0" />
    <path
       style="fill:#009999;fill-opacity:1;stroke:#009999;stroke-width:0.03125;stroke-linecap:round;stroke-linejoin:round;stroke-miterlimit:4;stroke-opacity:1;stroke-dasharray:none"
       d="m 133.37942,211.94918 c 10e-4,-0.0275 -0.0536,-0.30871 -0.12146,-0.625 -0.10363,-0.48279 -0.2244,-1.10506 -0.3724,-1.91882 -0.0201,-0.1106 -0.0294,0.12395 -0.0319,0.80272 l -0.003,0.95897 0.10192,-0.0165 c 0.14513,-0.0236 0.1852,0.0368 0.31443,0.4736 0.061,0.20625 0.11183,0.35253 0.11292,0.32507 z"
       id="path3963"
       inkscape:connector-curvature="0" />
    <path
       style="fill:#009999;fill-opacity:1;stroke:#009999;stroke-width:0.03125;stroke-linecap:round;stroke-linejoin:round;stroke-miterlimit:4;stroke-opacity:1;stroke-dasharray:none"
       d="m 133.2542,211.44787 c 0.001,-0.0282 -0.0198,-0.16729 -0.0467,-0.30913 -0.0269,-0.14184 -0.0559,-0.3016 -0.0644,-0.35502 -0.009,-0.0534 -0.0216,-0.12524 -0.0291,-0.15961 -0.008,-0.0344 -0.0613,-0.29454 -0.11947,-0.57813 l -0.10584,-0.51562 -0.004,0.80468 -0.004,0.80469 0.0889,0 c 0.1059,0 0.17554,0.0696 0.23666,0.23645 0.0248,0.0676 0.046,0.0999 0.0472,0.0717 z"
       id="path3965"
       inkscape:connector-curvature="0" />
    <path
       style="fill:#009999;fill-opacity:1;stroke:#009999;stroke-width:0.03125;stroke-linecap:round;stroke-linejoin:round;stroke-miterlimit:4;stroke-opacity:1;stroke-dasharray:none"
       d=""
       id="path3967"
       inkscape:connector-curvature="0" />
    <path
       style="fill:#009999;fill-opacity:1;stroke:#009999;stroke-width:0.0625;stroke-linecap:round;stroke-linejoin:round;stroke-miterlimit:4;stroke-opacity:1;stroke-dasharray:none"
       d="m 131.394,189.8747 c 0.11121,-0.4321 0.14379,-1.76416 0.18488,-7.55938 0.0318,-4.48219 0.0582,-5.77986 0.11899,-5.84063 0.0619,-0.0619 0.0781,-2.4027 0.0781,-11.28437 l 0,-11.20625 -19.03583,0 c -17.784953,0 -19.034513,0.007 -19.015633,0.10488 0.0239,0.12412 0.0296,0.12588 1.68931,0.52081 9.314583,2.21644 17.367903,6.8068 23.902493,13.62431 5.75632,6.00556 9.7855,13.32418 11.89679,21.60938 0.0372,0.14609 0.0796,0.26562 0.0941,0.26562 0.0145,0 0.0536,-0.10547 0.0868,-0.23437 z"
       id="path3969"
       inkscape:connector-curvature="0" />
    <path
       style="fill:#009999;fill-opacity:1;stroke:#009999;stroke-width:0.0625;stroke-linecap:round;stroke-linejoin:round;stroke-miterlimit:4;stroke-opacity:1;stroke-dasharray:none"
       d="m 131.77072,229.5622 c -0.005,-18.88315 -0.008,-19.28482 -0.11986,-18.73438 -2.43497,11.95192 -9.26433,22.44336 -19.24987,29.57217 -6.08421,4.3436 -13.342693,7.26449 -20.781253,8.36261 -0.47492,0.0701 2.60734,0.0841 19.796883,0.0898 l 20.35937,0.007 -0.005,-19.29687 z"
       id="path3971"
       inkscape:connector-curvature="0" />
    <path
       style="fill:none;stroke:#000000;stroke-width:4;stroke-linecap:butt;stroke-linejoin:miter;stroke-miterlimit:4;stroke-opacity:1;stroke-dasharray:none;marker-end:url(#TriangleOutS)"
       d="m 145.43185,201.55587 -22.6514,0"
       id="path3973"
       inkscape:connector-curvature="0" />
    <path
       style="fill:#009999;fill-opacity:1;stroke:#009999;stroke-width:0.35355338;stroke-linecap:round;stroke-linejoin:round;stroke-miterlimit:4;stroke-opacity:1;stroke-dasharray:none"
       d="m 173.35102,248.81074 c -0.14585,-0.0198 -0.79866,-0.13316 -1.4507,-0.25193 -1.33112,-0.24246 -1.33648,-0.24308 -1.16598,-0.13512 0.0679,0.043 0.0993,0.14085 0.0699,0.21752 -0.0453,0.11803 -0.28772,0.14345 -1.58177,0.16583 -0.84055,0.0145 -0.19582,0.0294 1.43273,0.0331 1.62856,0.004 2.84169,-0.01 2.69585,-0.0293 z"
       id="path5367"
       inkscape:connector-curvature="0" />
    <path
       style="fill:#009999;fill-opacity:1;stroke:#009999;stroke-width:0.35355338;stroke-linecap:round;stroke-linejoin:round;stroke-miterlimit:4;stroke-opacity:1;stroke-dasharray:none"
       d="m 173.44304,248.86732 c 0.032,-0.0519 0.0392,-0.11337 0.0158,-0.13671 -0.0233,-0.0233 -0.66539,-0.1496 -1.42679,-0.28057 -1.1158,-0.19194 -1.39815,-0.2158 -1.45553,-0.12297 -0.0817,0.13216 -2.05172,-0.40452 -4.87112,-1.32699 -6.28889,-2.05764 -11.36289,-4.8415 -16.30765,-8.94721 -1.28976,-1.07091 -4.72721,-4.49131 -5.9132,-5.88386 -4.53794,-5.32834 -7.4911,-11.08492 -9.94882,-19.39314 -0.24295,-0.82131 -0.45985,-1.51141 -0.482,-1.53355 -0.21499,-0.215 -0.22879,0.91934 -0.22879,18.80938 l 0,18.73311 17.93762,0 c 11.86306,0 17.95611,0.0299 17.99224,0.0884 0.0775,0.12534 4.61063,0.11966 4.68822,-0.006 l 0,0 z"
       id="path5369"
       inkscape:connector-curvature="0" />
    <path
       style="fill:#009999;fill-opacity:1;stroke:#009999;stroke-width:0.02209709;stroke-linecap:round;stroke-linejoin:round;stroke-miterlimit:4;stroke-opacity:1;stroke-dasharray:none"
       d="m 174.71074,248.9389 c -0.006,-10e-4 -0.14653,-0.0182 -0.31212,-0.038 -0.25835,-0.0309 -0.67901,-0.0849 -0.73209,-0.0938 -0.0166,-0.003 -0.0167,-0.003 -0.0235,0.0329 -0.004,0.0197 -0.013,0.0498 -0.0206,0.067 -0.008,0.0172 -0.0138,0.0322 -0.0138,0.0333 0,0.001 0.25046,0.002 0.55657,0.001 0.30611,-4.1e-4 0.5516,-0.002 0.54552,-0.003 z"
       id="path5371"
       inkscape:connector-curvature="0" />
    <path
       style="fill:#009999;fill-opacity:1;stroke:#009999;stroke-width:0.0625;stroke-linecap:round;stroke-linejoin:round;stroke-miterlimit:4;stroke-opacity:1;stroke-dasharray:none"
       d="m 132.8515,176.63986 c 0,-0.15253 0.0184,-0.21032 0.0445,-0.1398 0.0119,0.0323 0.0135,0.0327 0.0194,0.005 0.004,-0.0165 0.005,-2.52443 0.002,-5.57307 l -0.004,-5.54296 -0.0389,0 -0.0389,0 0,5.70312 c 0,3.13672 0.004,5.70313 0.008,5.70313 0.004,0 0.008,-0.0699 0.008,-0.15533 z"
       id="path5373"
       inkscape:connector-curvature="0" />
    <path
       style="fill:#009999;fill-opacity:1;stroke:#009999;stroke-width:0.0625;stroke-linecap:round;stroke-linejoin:round;stroke-miterlimit:4;stroke-opacity:1;stroke-dasharray:none"
       d=""
       id="path5375"
       inkscape:connector-curvature="0" />
    <path
       style="fill:#009999;fill-opacity:1;stroke:#009999;stroke-width:0.0625;stroke-linecap:round;stroke-linejoin:round;stroke-miterlimit:4;stroke-opacity:1;stroke-dasharray:none"
       d="m 131.8173,172.59597 -0.003,-3.8711 -0.0109,3.33594 c -0.01,2.99035 -0.0252,4.2227 -0.0548,4.36328 -0.008,0.0381 -0.004,0.043 0.0313,0.043 l 0.0403,0 -0.003,-3.87109 z"
       id="path5377"
       inkscape:connector-curvature="0" />
    <path
       style="fill:#009999;fill-opacity:1;stroke:#009999;stroke-width:0.0625;stroke-linecap:round;stroke-linejoin:round;stroke-miterlimit:4;stroke-opacity:1;stroke-dasharray:none"
       d="m 132.85027,176.88243 c 6.8e-4,-0.0165 -0.003,-0.0257 -0.008,-0.0205 -0.005,0.005 -0.006,0.0187 -0.001,0.03 0.005,0.0125 0.009,0.009 0.009,-0.009 z"
       id="path5379"
       inkscape:connector-curvature="0" />
    <path
       style="fill:#009999;fill-opacity:1;stroke:#009999;stroke-width:0.0625;stroke-linecap:round;stroke-linejoin:round;stroke-miterlimit:4;stroke-opacity:1;stroke-dasharray:none"
       d=""
       id="path5381"
       inkscape:connector-curvature="0" />
    <path
       style="fill:#009999;fill-opacity:1;stroke:#009999;stroke-width:0.015625;stroke-linecap:round;stroke-linejoin:round;stroke-miterlimit:4;stroke-opacity:1;stroke-dasharray:none"
       d="m 132.91971,176.87091 c 9.4e-4,-0.27952 -2.8e-4,-0.31601 -0.0105,-0.31334 -0.006,0.001 -0.006,0.006 -0.004,0.0376 0.002,0.0341 0.0107,0.34199 0.0125,0.47146 4.8e-4,0.0333 0.001,-0.0548 0.002,-0.1957 z"
       id="path5383"
       inkscape:connector-curvature="0" />
    <path
       style="fill:#009999;fill-opacity:1;stroke:#009999;stroke-width:0.015625;stroke-linecap:round;stroke-linejoin:round;stroke-miterlimit:4;stroke-opacity:1;stroke-dasharray:none"
       d="m 132.92357,177.12521 c 0,-0.008 -8e-4,-0.0106 -0.002,-0.007 -9.8e-4,0.004 -9.8e-4,0.01 0,0.0137 9.8e-4,0.004 0.002,6.9e-4 0.002,-0.007 z"
       id="path5385"
       inkscape:connector-curvature="0" />
    <path
       style="fill:#009999;fill-opacity:1;stroke:#009999;stroke-width:0.015625;stroke-linecap:round;stroke-linejoin:round;stroke-miterlimit:4;stroke-opacity:1;stroke-dasharray:none"
       d="m 132.92372,177.18575 c 8e-5,-0.006 -7.3e-4,-0.01 -0.002,-0.007 -0.001,0.003 -0.001,0.008 -1.5e-4,0.0117 9.9e-4,0.004 0.002,0.002 0.002,-0.005 z"
       id="path5387"
       inkscape:connector-curvature="0" />
    <path
       style="fill:#009999;fill-opacity:1;stroke:#009999;stroke-width:0.015625;stroke-linecap:round;stroke-linejoin:round;stroke-miterlimit:4;stroke-opacity:1;stroke-dasharray:none"
       d="m 131.60777,182.74858 c 1.7e-4,-0.004 -7.6e-4,-0.006 -0.002,-0.005 -0.001,0.001 -0.001,0.005 -3e-4,0.007 0.001,0.003 0.002,0.002 0.002,-0.002 z"
       id="path5389"
       inkscape:connector-curvature="0" />
    <path
       style="fill:#009999;fill-opacity:1;stroke:#009999;stroke-width:0.015625;stroke-linecap:round;stroke-linejoin:round;stroke-miterlimit:4;stroke-opacity:1;stroke-dasharray:none"
       d="m 164.1283,156.16559 c 0.22604,-0.0814 0.66181,-0.23076 0.98438,-0.33744 1.14516,-0.37876 2.23993,-0.69623 3.43554,-0.99626 0.19121,-0.048 0.3441,-0.0873 0.33974,-0.0874 -0.0135,-3e-4 -0.0253,-0.0113 -0.0253,-0.0237 0,-0.008 0.007,-0.0192 0.024,-0.0398 0.0586,-0.0695 0.0823,-0.1285 0.0755,-0.1876 l -0.003,-0.0229 -0.0142,0.0243 c -0.0277,0.0472 -0.0854,0.0949 -0.1601,0.13216 -0.11944,0.0596 -0.33927,0.13231 -0.73891,0.24426 -1.13032,0.31664 -1.86772,0.5402 -2.75976,0.83667 -0.36187,0.12026 -1.15518,0.3966 -1.28809,0.44868 -0.006,0.002 -0.007,0.008 -0.007,0.0296 0,0.0148 0.001,0.0268 0.003,0.0268 0.002,-1e-4 0.0618,-0.0214 0.13379,-0.0473 l 0,0 z"
       id="path5391"
       inkscape:connector-curvature="0" />
    <path
       style="fill:#009999;fill-opacity:1;stroke:#009999;stroke-width:0.015625;stroke-linecap:round;stroke-linejoin:round;stroke-miterlimit:4;stroke-opacity:1;stroke-dasharray:none"
       d="m 159.32885,158.17158 c 0.15529,-0.0761 0.65826,-0.31262 0.90234,-0.42437 1.07388,-0.49166 2.15966,-0.9412 3.26172,-1.35042 0.1665,-0.0618 0.34327,-0.12682 0.39281,-0.14443 0.0495,-0.0176 0.0918,-0.0332 0.0939,-0.0347 0.002,-0.002 0.003,-0.0137 0.002,-0.0287 l -0.002,-0.026 -0.0996,0.0363 c -0.95958,0.34919 -2.10331,0.81162 -3.08985,1.24926 -0.45254,0.20076 -1.06481,0.48397 -1.41992,0.65679 -0.11235,0.0547 -0.11724,0.0575 -0.11841,0.0687 -6.7e-4,0.006 -6.7e-4,0.0169 0,0.0233 l 0.001,0.0116 0.0762,-0.0373 0,0 z"
       id="path5393"
       inkscape:connector-curvature="0" />
  </g>
</svg>
